<mxfile host="drawio-plugin" modified="2023-04-18T20:20:27.665Z" agent="5.0 (Macintosh; Intel Mac OS X 10_15_7) AppleWebKit/537.36 (KHTML, like Gecko) Chrome/104.0.5112.102 Safari/537.36" etag="8ftrMLjEnb799B3tpy_l" version="20.5.3" type="embed"><diagram name="ri" id="Xuikq1Sadlli3r0yyZJf"><mxGraphModel dx="821" dy="814" grid="1" gridSize="10" guides="1" tooltips="1" connect="1" arrows="1" fold="1" page="1" pageScale="1" pageWidth="850" pageHeight="1100" math="0" shadow="0"><root><mxCell id="qOTPJeOaGqRv_bvspCkk-0"/><mxCell id="qOTPJeOaGqRv_bvspCkk-1" parent="qOTPJeOaGqRv_bvspCkk-0"/><mxCell id="fw10FvaZPuGNBHpMOnDo-15" value="Account: Toolchain" style="points=[[0,0],[0.25,0],[0.5,0],[0.75,0],[1,0],[1,0.25],[1,0.5],[1,0.75],[1,1],[0.75,1],[0.5,1],[0.25,1],[0,1],[0,0.75],[0,0.5],[0,0.25]];outlineConnect=0;gradientColor=none;html=1;whiteSpace=wrap;fontSize=12;fontStyle=0;container=1;pointerEvents=0;collapsible=0;recursiveResize=0;shape=mxgraph.aws4.group;grIcon=mxgraph.aws4.group_account;strokeColor=#CD2264;fillColor=none;verticalAlign=top;align=left;spacingLeft=30;fontColor=#CD2264;dashed=0;" parent="qOTPJeOaGqRv_bvspCkk-1" vertex="1"><mxGeometry x="60" y="10" width="310" height="1220" as="geometry"/></mxCell><mxCell id="qOTPJeOaGqRv_bvspCkk-3" value="Stack: FoodDynamicConfiguration-Beta" style="rounded=0;whiteSpace=wrap;html=1;verticalAlign=top;fillColor=#ffe6cc;strokeColor=#d79b00;" parent="qOTPJeOaGqRv_bvspCkk-1" vertex="1"><mxGeometry x="465" y="692.9" width="330" height="60" as="geometry"/></mxCell><mxCell id="qOTPJeOaGqRv_bvspCkk-4" value="Stack: FoodDynamicConfigurationCore" style="rounded=0;whiteSpace=wrap;html=1;verticalAlign=top;fillColor=#ffe6cc;strokeColor=#d79b00;" parent="qOTPJeOaGqRv_bvspCkk-1" vertex="1"><mxGeometry x="465" y="45.25" width="330" height="434.75" as="geometry"/></mxCell><mxCell id="qOTPJeOaGqRv_bvspCkk-6" value="Stack: Pipeline" style="rounded=0;whiteSpace=wrap;html=1;verticalAlign=top;fillColor=#ffe6cc;strokeColor=#d79b00;" parent="qOTPJeOaGqRv_bvspCkk-1" vertex="1"><mxGeometry x="75" y="50" width="280" height="900" as="geometry"/></mxCell><mxCell id="qOTPJeOaGqRv_bvspCkk-7" value="AppConfig Application: Fruits" style="rounded=0;whiteSpace=wrap;html=1;verticalAlign=top;fillColor=#bac8d3;strokeColor=#23445d;" parent="qOTPJeOaGqRv_bvspCkk-1" vertex="1"><mxGeometry x="490" y="70" width="280" height="410" as="geometry"/></mxCell><mxCell id="qOTPJeOaGqRv_bvspCkk-8" value="CodePipeline: &lt;br&gt;FoodDynamicConfigPipeline" style="rounded=0;whiteSpace=wrap;html=1;verticalAlign=top;fillColor=#f8cecc;strokeColor=#b85450;" parent="qOTPJeOaGqRv_bvspCkk-1" vertex="1"><mxGeometry x="95" y="80" width="240" height="860" as="geometry"/></mxCell><mxCell id="qOTPJeOaGqRv_bvspCkk-9" value="AppConfig Profile: Operations - Beta" style="rounded=0;whiteSpace=wrap;html=1;verticalAlign=top;fillColor=#d5e8d4;strokeColor=#82b366;" parent="qOTPJeOaGqRv_bvspCkk-1" vertex="1"><mxGeometry x="510" y="174" width="240" height="60" as="geometry"/></mxCell><mxCell id="qOTPJeOaGqRv_bvspCkk-11" value="AppConfig Configuration Version: 1, 2, n" style="rounded=0;whiteSpace=wrap;html=1;verticalAlign=top;fillColor=#60a917;fontColor=#ffffff;strokeColor=#2D7600;" parent="qOTPJeOaGqRv_bvspCkk-1" vertex="1"><mxGeometry x="515" y="199" width="230" height="30" as="geometry"/></mxCell><mxCell id="qOTPJeOaGqRv_bvspCkk-12" value="AppConfig Profile: Features" style="rounded=0;whiteSpace=wrap;html=1;verticalAlign=top;fillColor=#d5e8d4;strokeColor=#82b366;" parent="qOTPJeOaGqRv_bvspCkk-1" vertex="1"><mxGeometry x="510" y="110" width="240" height="60" as="geometry"/></mxCell><mxCell id="qOTPJeOaGqRv_bvspCkk-13" value="AppConfig Configuration Version: 1, 2, n" style="rounded=0;whiteSpace=wrap;html=1;verticalAlign=top;fillColor=#60a917;fontColor=#ffffff;strokeColor=#2D7600;" parent="qOTPJeOaGqRv_bvspCkk-1" vertex="1"><mxGeometry x="515" y="136" width="230" height="30" as="geometry"/></mxCell><mxCell id="qOTPJeOaGqRv_bvspCkk-14" value="AppConfig Environment: Beta" style="rounded=0;whiteSpace=wrap;html=1;verticalAlign=top;fillColor=#dae8fc;strokeColor=#6c8ebf;" parent="qOTPJeOaGqRv_bvspCkk-1" vertex="1"><mxGeometry x="510" y="371.09" width="240" height="32.75" as="geometry"/></mxCell><mxCell id="qOTPJeOaGqRv_bvspCkk-15" value="AppConfig Deployment: Profile Version n" style="rounded=0;whiteSpace=wrap;html=1;verticalAlign=top;fillColor=#1ba1e2;fontColor=#ffffff;strokeColor=#006EAF;" parent="qOTPJeOaGqRv_bvspCkk-1" vertex="1"><mxGeometry x="510" y="715.9" width="240" height="30" as="geometry"/></mxCell><mxCell id="qOTPJeOaGqRv_bvspCkk-16" value="Stack: ServiceDiscovery" style="rounded=0;whiteSpace=wrap;html=1;verticalAlign=top;fillColor=#ffe6cc;strokeColor=#d79b00;" parent="qOTPJeOaGqRv_bvspCkk-1" vertex="1"><mxGeometry x="75" y="960" width="280" height="220" as="geometry"/></mxCell><mxCell id="qOTPJeOaGqRv_bvspCkk-17" value="Stack: FoodDynamicConfiguration-Gamma" style="rounded=0;whiteSpace=wrap;html=1;verticalAlign=top;fillColor=#ffe6cc;strokeColor=#d79b00;" parent="qOTPJeOaGqRv_bvspCkk-1" vertex="1"><mxGeometry x="465" y="780.25" width="330" height="63" as="geometry"/></mxCell><mxCell id="qOTPJeOaGqRv_bvspCkk-18" value="AppConfig Deployment: Profile Version 2" style="rounded=0;whiteSpace=wrap;html=1;verticalAlign=top;fillColor=#1ba1e2;fontColor=#ffffff;strokeColor=#006EAF;" parent="qOTPJeOaGqRv_bvspCkk-1" vertex="1"><mxGeometry x="510" y="808.25" width="240" height="30" as="geometry"/></mxCell><mxCell id="qOTPJeOaGqRv_bvspCkk-19" value="Stack: FoodDynamicConfiguration-Prod" style="rounded=0;whiteSpace=wrap;html=1;verticalAlign=top;fillColor=#ffe6cc;strokeColor=#d79b00;" parent="qOTPJeOaGqRv_bvspCkk-1" vertex="1"><mxGeometry x="465" y="870" width="330" height="60" as="geometry"/></mxCell><mxCell id="qOTPJeOaGqRv_bvspCkk-20" value="AppConfig Deployment: Profile Version 1" style="rounded=0;whiteSpace=wrap;html=1;verticalAlign=top;fillColor=#1ba1e2;fontColor=#ffffff;strokeColor=#006EAF;" parent="qOTPJeOaGqRv_bvspCkk-1" vertex="1"><mxGeometry x="510" y="895" width="240" height="30" as="geometry"/></mxCell><mxCell id="qOTPJeOaGqRv_bvspCkk-21" value="SSM Parameter: FoodDynamicConfigRole-Beta" style="rounded=0;whiteSpace=wrap;html=1;verticalAlign=middle;fillColor=#b0e3e6;strokeColor=#0e8088;" parent="qOTPJeOaGqRv_bvspCkk-1" vertex="1"><mxGeometry x="115" y="981" width="200" height="60" as="geometry"/></mxCell><mxCell id="qOTPJeOaGqRv_bvspCkk-22" value="SSM Parameter: FoodDynamicConfigRole-Gamma" style="rounded=0;whiteSpace=wrap;html=1;verticalAlign=middle;fillColor=#b0e3e6;strokeColor=#0e8088;" parent="qOTPJeOaGqRv_bvspCkk-1" vertex="1"><mxGeometry x="115" y="1045.5" width="200" height="60" as="geometry"/></mxCell><mxCell id="qOTPJeOaGqRv_bvspCkk-23" value="SSM Parameter: FoodDynamicConfigRole-Prod" style="rounded=0;whiteSpace=wrap;html=1;verticalAlign=middle;fillColor=#b0e3e6;strokeColor=#0e8088;" parent="qOTPJeOaGqRv_bvspCkk-1" vertex="1"><mxGeometry x="115" y="1111" width="200" height="60" as="geometry"/></mxCell><mxCell id="qOTPJeOaGqRv_bvspCkk-25" value="Stack: FruitsApp" style="rounded=0;whiteSpace=wrap;html=1;verticalAlign=top;fillColor=#ffe6cc;strokeColor=#d79b00;" parent="qOTPJeOaGqRv_bvspCkk-1" vertex="1"><mxGeometry x="465" y="1023" width="330" height="77" as="geometry"/></mxCell><mxCell id="qOTPJeOaGqRv_bvspCkk-26" style="edgeStyle=orthogonalEdgeStyle;rounded=0;hachureGap=4;orthogonalLoop=1;jettySize=auto;html=1;entryX=1;entryY=0.5;entryDx=0;entryDy=0;fontFamily=Architects Daughter;fontSource=https%3A%2F%2Ffonts.googleapis.com%2Fcss%3Ffamily%3DArchitects%2BDaughter;fontSize=16;exitX=1;exitY=0.132;exitDx=0;exitDy=0;exitPerimeter=0;" parent="qOTPJeOaGqRv_bvspCkk-1" source="qOTPJeOaGqRv_bvspCkk-54" target="qOTPJeOaGqRv_bvspCkk-23" edge="1"><mxGeometry relative="1" as="geometry"><Array as="points"><mxPoint x="390" y="1190"/><mxPoint x="390" y="1141"/></Array><mxPoint x="380" y="1230" as="sourcePoint"/></mxGeometry></mxCell><mxCell id="qOTPJeOaGqRv_bvspCkk-27" style="edgeStyle=orthogonalEdgeStyle;rounded=0;hachureGap=4;orthogonalLoop=1;jettySize=auto;html=1;entryX=1;entryY=0.5;entryDx=0;entryDy=0;fontFamily=Architects Daughter;fontSource=https%3A%2F%2Ffonts.googleapis.com%2Fcss%3Ffamily%3DArchitects%2BDaughter;fontSize=16;" parent="qOTPJeOaGqRv_bvspCkk-1" source="qOTPJeOaGqRv_bvspCkk-54" target="qOTPJeOaGqRv_bvspCkk-22" edge="1"><mxGeometry relative="1" as="geometry"><Array as="points"><mxPoint x="390" y="1190"/><mxPoint x="390" y="1076"/></Array></mxGeometry></mxCell><mxCell id="qOTPJeOaGqRv_bvspCkk-28" style="edgeStyle=orthogonalEdgeStyle;rounded=0;hachureGap=4;orthogonalLoop=1;jettySize=auto;html=1;entryX=1;entryY=0.5;entryDx=0;entryDy=0;fontFamily=Architects Daughter;fontSource=https%3A%2F%2Ffonts.googleapis.com%2Fcss%3Ffamily%3DArchitects%2BDaughter;fontSize=16;" parent="qOTPJeOaGqRv_bvspCkk-1" source="qOTPJeOaGqRv_bvspCkk-54" target="qOTPJeOaGqRv_bvspCkk-21" edge="1"><mxGeometry relative="1" as="geometry"><mxPoint x="439.97" y="1207" as="sourcePoint"/><mxPoint x="399.97" y="960" as="targetPoint"/><Array as="points"><mxPoint x="390" y="1190"/><mxPoint x="390" y="1011"/></Array></mxGeometry></mxCell><mxCell id="qOTPJeOaGqRv_bvspCkk-29" value="read" style="edgeLabel;html=1;align=center;verticalAlign=middle;resizable=0;points=[];" parent="qOTPJeOaGqRv_bvspCkk-28" vertex="1" connectable="0"><mxGeometry x="-0.6255" y="-3" relative="1" as="geometry"><mxPoint x="-3" y="-17" as="offset"/></mxGeometry></mxCell><mxCell id="qOTPJeOaGqRv_bvspCkk-32" style="edgeStyle=orthogonalEdgeStyle;rounded=0;orthogonalLoop=1;jettySize=auto;html=1;" parent="qOTPJeOaGqRv_bvspCkk-1" source="qOTPJeOaGqRv_bvspCkk-35" target="qOTPJeOaGqRv_bvspCkk-18" edge="1"><mxGeometry relative="1" as="geometry"><Array as="points"><mxPoint x="830" y="1070"/><mxPoint x="830" y="823"/></Array></mxGeometry></mxCell><mxCell id="qOTPJeOaGqRv_bvspCkk-33" style="edgeStyle=orthogonalEdgeStyle;rounded=0;orthogonalLoop=1;jettySize=auto;html=1;" parent="qOTPJeOaGqRv_bvspCkk-1" source="qOTPJeOaGqRv_bvspCkk-35" target="qOTPJeOaGqRv_bvspCkk-15" edge="1"><mxGeometry relative="1" as="geometry"><Array as="points"><mxPoint x="830" y="1070"/><mxPoint x="830" y="730"/></Array></mxGeometry></mxCell><mxCell id="qOTPJeOaGqRv_bvspCkk-34" value="Prod" style="rounded=0;whiteSpace=wrap;html=1;verticalAlign=top;fillColor=#d5e8d4;strokeColor=#82b366;" parent="qOTPJeOaGqRv_bvspCkk-1" vertex="1"><mxGeometry x="110" y="850" width="210" height="80" as="geometry"/></mxCell><mxCell id="qOTPJeOaGqRv_bvspCkk-35" value="ECS: Service: Task: FruitsApi" style="rounded=0;whiteSpace=wrap;html=1;verticalAlign=middle;fillColor=#ffff88;strokeColor=#36393d;" parent="qOTPJeOaGqRv_bvspCkk-1" vertex="1"><mxGeometry x="490" y="1050" width="280" height="40" as="geometry"/></mxCell><mxCell id="qOTPJeOaGqRv_bvspCkk-36" value="Gamma" style="rounded=0;whiteSpace=wrap;html=1;verticalAlign=top;fillColor=#d5e8d4;strokeColor=#82b366;" parent="qOTPJeOaGqRv_bvspCkk-1" vertex="1"><mxGeometry x="110" y="759.25" width="210" height="84.5" as="geometry"/></mxCell><mxCell id="qOTPJeOaGqRv_bvspCkk-37" value="Core" style="rounded=0;whiteSpace=wrap;html=1;verticalAlign=top;fillColor=#d5e8d4;strokeColor=#82b366;" parent="qOTPJeOaGqRv_bvspCkk-1" vertex="1"><mxGeometry x="115" y="217" width="200" height="73" as="geometry"/></mxCell><mxCell id="qOTPJeOaGqRv_bvspCkk-38" value="Beta" style="rounded=0;whiteSpace=wrap;html=1;verticalAlign=top;fillColor=#d5e8d4;strokeColor=#82b366;" parent="qOTPJeOaGqRv_bvspCkk-1" vertex="1"><mxGeometry x="110" y="680" width="210" height="72.9" as="geometry"/></mxCell><mxCell id="qOTPJeOaGqRv_bvspCkk-39" value="Wave: Beta" style="rounded=0;whiteSpace=wrap;html=1;verticalAlign=middle;fillColor=#e1d5e7;strokeColor=#9673a6;" parent="qOTPJeOaGqRv_bvspCkk-1" vertex="1"><mxGeometry x="125" y="702.9" width="180" height="40" as="geometry"/></mxCell><mxCell id="qOTPJeOaGqRv_bvspCkk-40" value="Wave: Core" style="rounded=0;whiteSpace=wrap;html=1;verticalAlign=middle;fillColor=#e1d5e7;strokeColor=#9673a6;" parent="qOTPJeOaGqRv_bvspCkk-1" vertex="1"><mxGeometry x="125" y="239.84" width="180" height="46" as="geometry"/></mxCell><mxCell id="qOTPJeOaGqRv_bvspCkk-45" style="edgeStyle=orthogonalEdgeStyle;rounded=0;orthogonalLoop=1;jettySize=auto;html=1;entryX=0;entryY=0.5;entryDx=0;entryDy=0;" parent="qOTPJeOaGqRv_bvspCkk-1" source="qOTPJeOaGqRv_bvspCkk-40" target="qOTPJeOaGqRv_bvspCkk-4" edge="1"><mxGeometry relative="1" as="geometry"/></mxCell><mxCell id="qOTPJeOaGqRv_bvspCkk-46" value="provision" style="edgeLabel;html=1;align=center;verticalAlign=middle;resizable=0;points=[];" parent="qOTPJeOaGqRv_bvspCkk-45" vertex="1" connectable="0"><mxGeometry x="0.6089" relative="1" as="geometry"><mxPoint x="-18" y="-11" as="offset"/></mxGeometry></mxCell><mxCell id="qOTPJeOaGqRv_bvspCkk-47" style="edgeStyle=orthogonalEdgeStyle;rounded=0;orthogonalLoop=1;jettySize=auto;html=1;entryX=0;entryY=0.5;entryDx=0;entryDy=0;exitX=1;exitY=0.5;exitDx=0;exitDy=0;" parent="qOTPJeOaGqRv_bvspCkk-1" source="qOTPJeOaGqRv_bvspCkk-39" target="qOTPJeOaGqRv_bvspCkk-3" edge="1"><mxGeometry relative="1" as="geometry"/></mxCell><mxCell id="fw10FvaZPuGNBHpMOnDo-8" value="provision" style="edgeLabel;html=1;align=center;verticalAlign=middle;resizable=0;points=[];" parent="qOTPJeOaGqRv_bvspCkk-47" vertex="1" connectable="0"><mxGeometry x="0.2441" y="-2" relative="1" as="geometry"><mxPoint x="6" y="9" as="offset"/></mxGeometry></mxCell><mxCell id="qOTPJeOaGqRv_bvspCkk-51" style="edgeStyle=orthogonalEdgeStyle;rounded=0;orthogonalLoop=1;jettySize=auto;html=1;entryX=0;entryY=0.5;entryDx=0;entryDy=0;" parent="qOTPJeOaGqRv_bvspCkk-1" source="qOTPJeOaGqRv_bvspCkk-41" target="qOTPJeOaGqRv_bvspCkk-17" edge="1"><mxGeometry relative="1" as="geometry"/></mxCell><mxCell id="fw10FvaZPuGNBHpMOnDo-14" value="provision" style="edgeLabel;html=1;align=center;verticalAlign=middle;resizable=0;points=[];" parent="qOTPJeOaGqRv_bvspCkk-51" vertex="1" connectable="0"><mxGeometry x="0.0242" relative="1" as="geometry"><mxPoint x="18" y="-8" as="offset"/></mxGeometry></mxCell><mxCell id="qOTPJeOaGqRv_bvspCkk-53" value="provision" style="edgeStyle=orthogonalEdgeStyle;rounded=0;orthogonalLoop=1;jettySize=auto;html=1;" parent="qOTPJeOaGqRv_bvspCkk-1" source="qOTPJeOaGqRv_bvspCkk-54" target="qOTPJeOaGqRv_bvspCkk-25" edge="1"><mxGeometry x="0.601" relative="1" as="geometry"><mxPoint as="offset"/></mxGeometry></mxCell><mxCell id="qOTPJeOaGqRv_bvspCkk-54" value="Stack: FruitsAppPipeline" style="rounded=0;whiteSpace=wrap;html=1;verticalAlign=top;fillColor=#ffe6cc;strokeColor=#d79b00;" parent="qOTPJeOaGqRv_bvspCkk-1" vertex="1"><mxGeometry x="75" y="1185.93" width="280" height="30" as="geometry"/></mxCell><mxCell id="qOTPJeOaGqRv_bvspCkk-55" style="edgeStyle=orthogonalEdgeStyle;rounded=0;orthogonalLoop=1;jettySize=auto;html=1;entryX=0;entryY=0.5;entryDx=0;entryDy=0;" parent="qOTPJeOaGqRv_bvspCkk-1" source="qOTPJeOaGqRv_bvspCkk-44" target="qOTPJeOaGqRv_bvspCkk-19" edge="1"><mxGeometry relative="1" as="geometry"/></mxCell><mxCell id="qOTPJeOaGqRv_bvspCkk-56" value="provision" style="edgeLabel;html=1;align=center;verticalAlign=middle;resizable=0;points=[];" parent="qOTPJeOaGqRv_bvspCkk-55" vertex="1" connectable="0"><mxGeometry x="0.6056" y="2" relative="1" as="geometry"><mxPoint x="-25" y="-8" as="offset"/></mxGeometry></mxCell><mxCell id="qOTPJeOaGqRv_bvspCkk-60" value="Stack: FoodDynamicConfigurationSecurity" style="rounded=0;whiteSpace=wrap;html=1;verticalAlign=top;fillColor=#ffe6cc;strokeColor=#d79b00;" parent="qOTPJeOaGqRv_bvspCkk-1" vertex="1"><mxGeometry x="465" y="489.63" width="330" height="117" as="geometry"/></mxCell><mxCell id="qOTPJeOaGqRv_bvspCkk-61" value="AppConfig Access Role Prod" style="sketch=0;outlineConnect=0;fontColor=#232F3E;gradientColor=none;fillColor=#BF0816;strokeColor=none;dashed=0;verticalLabelPosition=middle;verticalAlign=middle;align=left;html=1;fontSize=12;fontStyle=0;aspect=fixed;pointerEvents=1;shape=mxgraph.aws4.role;labelPosition=right;" parent="qOTPJeOaGqRv_bvspCkk-1" vertex="1"><mxGeometry x="530" y="577.42" width="28" height="15.79" as="geometry"/></mxCell><mxCell id="qOTPJeOaGqRv_bvspCkk-63" value="AppConfig Access Role Gamma" style="sketch=0;outlineConnect=0;fontColor=#232F3E;gradientColor=none;fillColor=#BF0816;strokeColor=none;dashed=0;verticalLabelPosition=middle;verticalAlign=middle;align=left;html=1;fontSize=12;fontStyle=0;aspect=fixed;pointerEvents=1;shape=mxgraph.aws4.role;labelPosition=right;" parent="qOTPJeOaGqRv_bvspCkk-1" vertex="1"><mxGeometry x="530" y="549.88" width="28" height="15.79" as="geometry"/></mxCell><mxCell id="qOTPJeOaGqRv_bvspCkk-64" value="AppConfig Access Role Beta" style="sketch=0;outlineConnect=0;fontColor=#232F3E;gradientColor=none;fillColor=#BF0816;strokeColor=none;dashed=0;verticalLabelPosition=middle;verticalAlign=middle;align=left;html=1;fontSize=12;fontStyle=0;aspect=fixed;pointerEvents=1;shape=mxgraph.aws4.role;labelPosition=right;" parent="qOTPJeOaGqRv_bvspCkk-1" vertex="1"><mxGeometry x="530" y="521.63" width="28" height="15.79" as="geometry"/></mxCell><mxCell id="Mgq_C8octPmcVoCyaTNJ-0" value="AppConfig Environment:Gamma" style="rounded=0;whiteSpace=wrap;html=1;verticalAlign=top;fillColor=#dae8fc;strokeColor=#6c8ebf;" parent="qOTPJeOaGqRv_bvspCkk-1" vertex="1"><mxGeometry x="510" y="405.25" width="240" height="32.75" as="geometry"/></mxCell><mxCell id="Mgq_C8octPmcVoCyaTNJ-1" value="AppConfig Environment: Prod" style="rounded=0;whiteSpace=wrap;html=1;verticalAlign=top;fillColor=#dae8fc;strokeColor=#6c8ebf;" parent="qOTPJeOaGqRv_bvspCkk-1" vertex="1"><mxGeometry x="510" y="440.25" width="240" height="32.75" as="geometry"/></mxCell><mxCell id="qOTPJeOaGqRv_bvspCkk-30" style="edgeStyle=orthogonalEdgeStyle;rounded=0;orthogonalLoop=1;jettySize=auto;html=1;" parent="qOTPJeOaGqRv_bvspCkk-1" source="qOTPJeOaGqRv_bvspCkk-35" target="qOTPJeOaGqRv_bvspCkk-20" edge="1"><mxGeometry relative="1" as="geometry"><Array as="points"><mxPoint x="830" y="1070"/><mxPoint x="830" y="910"/></Array></mxGeometry></mxCell><mxCell id="qOTPJeOaGqRv_bvspCkk-31" value="read" style="edgeLabel;html=1;align=center;verticalAlign=middle;resizable=0;points=[];" parent="qOTPJeOaGqRv_bvspCkk-30" vertex="1" connectable="0"><mxGeometry x="0.0298" y="-1" relative="1" as="geometry"><mxPoint x="-1" y="70" as="offset"/></mxGeometry></mxCell><mxCell id="fw10FvaZPuGNBHpMOnDo-4" value="AppConfig Profile: Operations - Gamma" style="rounded=0;whiteSpace=wrap;html=1;verticalAlign=top;fillColor=#d5e8d4;strokeColor=#82b366;" parent="qOTPJeOaGqRv_bvspCkk-1" vertex="1"><mxGeometry x="510" y="239" width="240" height="60" as="geometry"/></mxCell><mxCell id="fw10FvaZPuGNBHpMOnDo-5" value="AppConfig Configuration Version: 1, 2, n" style="rounded=0;whiteSpace=wrap;html=1;verticalAlign=top;fillColor=#60a917;fontColor=#ffffff;strokeColor=#2D7600;" parent="qOTPJeOaGqRv_bvspCkk-1" vertex="1"><mxGeometry x="515" y="264" width="230" height="30" as="geometry"/></mxCell><mxCell id="fw10FvaZPuGNBHpMOnDo-6" value="AppConfig Profile: Operations - Prod" style="rounded=0;whiteSpace=wrap;html=1;verticalAlign=top;fillColor=#d5e8d4;strokeColor=#82b366;" parent="qOTPJeOaGqRv_bvspCkk-1" vertex="1"><mxGeometry x="510" y="307.00000000000006" width="240" height="60" as="geometry"/></mxCell><mxCell id="fw10FvaZPuGNBHpMOnDo-7" value="AppConfig Configuration Version: 1, 2, n" style="rounded=0;whiteSpace=wrap;html=1;verticalAlign=top;fillColor=#60a917;fontColor=#ffffff;strokeColor=#2D7600;" parent="qOTPJeOaGqRv_bvspCkk-1" vertex="1"><mxGeometry x="515" y="327.00000000000006" width="230" height="30" as="geometry"/></mxCell><mxCell id="fw10FvaZPuGNBHpMOnDo-9" value="Global" style="rounded=0;whiteSpace=wrap;html=1;verticalAlign=top;fillColor=#d5e8d4;strokeColor=#82b366;" parent="qOTPJeOaGqRv_bvspCkk-1" vertex="1"><mxGeometry x="110" y="503.13" width="210" height="74.29" as="geometry"/></mxCell><mxCell id="qOTPJeOaGqRv_bvspCkk-59" value="Stage: Roles" style="rounded=0;whiteSpace=wrap;html=1;verticalAlign=middle;fillColor=#e1d5e7;strokeColor=#9673a6;" parent="qOTPJeOaGqRv_bvspCkk-1" vertex="1"><mxGeometry x="125" y="525.1299999999999" width="180" height="46" as="geometry"/></mxCell><mxCell id="fw10FvaZPuGNBHpMOnDo-10" value="Service Discovery" style="rounded=0;whiteSpace=wrap;html=1;verticalAlign=top;fillColor=#d5e8d4;strokeColor=#82b366;" parent="qOTPJeOaGqRv_bvspCkk-1" vertex="1"><mxGeometry x="110" y="590" width="210" height="80" as="geometry"/></mxCell><mxCell id="qOTPJeOaGqRv_bvspCkk-52" value="Stage: Service Discovery" style="rounded=0;whiteSpace=wrap;html=1;verticalAlign=middle;fillColor=#e1d5e7;strokeColor=#9673a6;" parent="qOTPJeOaGqRv_bvspCkk-1" vertex="1"><mxGeometry x="125" y="614" width="180" height="46" as="geometry"/></mxCell><mxCell id="qOTPJeOaGqRv_bvspCkk-58" value="provision" style="edgeStyle=orthogonalEdgeStyle;rounded=0;orthogonalLoop=1;jettySize=auto;html=1;" parent="qOTPJeOaGqRv_bvspCkk-1" source="qOTPJeOaGqRv_bvspCkk-59" target="qOTPJeOaGqRv_bvspCkk-60" edge="1"><mxGeometry x="0.3168" y="9" relative="1" as="geometry"><mxPoint as="offset"/></mxGeometry></mxCell><mxCell id="qOTPJeOaGqRv_bvspCkk-62" value="provision" style="edgeStyle=orthogonalEdgeStyle;rounded=0;orthogonalLoop=1;jettySize=auto;html=1;exitX=0;exitY=0.5;exitDx=0;exitDy=0;entryX=0;entryY=0.5;entryDx=0;entryDy=0;" parent="qOTPJeOaGqRv_bvspCkk-1" source="qOTPJeOaGqRv_bvspCkk-52" target="qOTPJeOaGqRv_bvspCkk-16" edge="1"><mxGeometry relative="1" as="geometry"><Array as="points"><mxPoint x="30" y="637"/><mxPoint x="30" y="1070"/></Array></mxGeometry></mxCell><mxCell id="fw10FvaZPuGNBHpMOnDo-12" value="" style="rounded=0;whiteSpace=wrap;html=1;verticalAlign=middle;fillColor=#e1d5e7;strokeColor=#9673a6;" parent="qOTPJeOaGqRv_bvspCkk-1" vertex="1"><mxGeometry x="125" y="783.7499999999999" width="180" height="40" as="geometry"/></mxCell><mxCell id="qOTPJeOaGqRv_bvspCkk-41" value="Waves: Gamma 1 - n" style="rounded=0;whiteSpace=wrap;html=1;verticalAlign=middle;fillColor=#e1d5e7;strokeColor=#9673a6;" parent="qOTPJeOaGqRv_bvspCkk-1" vertex="1"><mxGeometry x="135" y="791.7499999999999" width="180" height="40" as="geometry"/></mxCell><mxCell id="fw10FvaZPuGNBHpMOnDo-13" value="" style="rounded=0;whiteSpace=wrap;html=1;verticalAlign=middle;fillColor=#e1d5e7;strokeColor=#9673a6;" parent="qOTPJeOaGqRv_bvspCkk-1" vertex="1"><mxGeometry x="125" y="869.9999999999999" width="180" height="40" as="geometry"/></mxCell><mxCell id="qOTPJeOaGqRv_bvspCkk-44" value="Wave: Prod-1" style="rounded=0;whiteSpace=wrap;html=1;verticalAlign=middle;fillColor=#e1d5e7;strokeColor=#9673a6;" parent="qOTPJeOaGqRv_bvspCkk-1" vertex="1"><mxGeometry x="135" y="879.9999999999999" width="180" height="40" as="geometry"/></mxCell><mxCell id="fw10FvaZPuGNBHpMOnDo-16" value="Account: Workload Beta/Gamma/Prod" style="points=[[0,0],[0.25,0],[0.5,0],[0.75,0],[1,0],[1,0.25],[1,0.5],[1,0.75],[1,1],[0.75,1],[0.5,1],[0.25,1],[0,1],[0,0.75],[0,0.5],[0,0.25]];outlineConnect=0;gradientColor=none;html=1;whiteSpace=wrap;fontSize=12;fontStyle=0;container=1;pointerEvents=0;collapsible=0;recursiveResize=0;shape=mxgraph.aws4.group;grIcon=mxgraph.aws4.group_account;strokeColor=#CD2264;fillColor=none;verticalAlign=top;align=left;spacingLeft=30;fontColor=#CD2264;dashed=0;shadow=0;sketch=0;" parent="qOTPJeOaGqRv_bvspCkk-1" vertex="1"><mxGeometry x="450" y="990" width="360" height="138" as="geometry"/></mxCell><mxCell id="fw10FvaZPuGNBHpMOnDo-22" value="" style="sketch=0;points=[[0,0,0],[0.25,0,0],[0.5,0,0],[0.75,0,0],[1,0,0],[0,1,0],[0.25,1,0],[0.5,1,0],[0.75,1,0],[1,1,0],[0,0.25,0],[0,0.5,0],[0,0.75,0],[1,0.25,0],[1,0.5,0],[1,0.75,0]];outlineConnect=0;fontColor=#232F3E;gradientColor=#F78E04;gradientDirection=north;fillColor=#D05C17;strokeColor=#ffffff;dashed=0;verticalLabelPosition=bottom;verticalAlign=top;align=center;html=1;fontSize=12;fontStyle=0;aspect=fixed;shape=mxgraph.aws4.resourceIcon;resIcon=mxgraph.aws4.ecs;" parent="fw10FvaZPuGNBHpMOnDo-16" vertex="1"><mxGeometry x="42" y="61" width="38" height="38" as="geometry"/></mxCell><mxCell id="fw10FvaZPuGNBHpMOnDo-17" value="Account: Dynamic Configuration" style="points=[[0,0],[0.25,0],[0.5,0],[0.75,0],[1,0],[1,0.25],[1,0.5],[1,0.75],[1,1],[0.75,1],[0.5,1],[0.25,1],[0,1],[0,0.75],[0,0.5],[0,0.25]];outlineConnect=0;gradientColor=none;html=1;whiteSpace=wrap;fontSize=12;fontStyle=0;container=1;pointerEvents=0;collapsible=0;recursiveResize=0;shape=mxgraph.aws4.group;grIcon=mxgraph.aws4.group_account;strokeColor=#CD2264;fillColor=none;verticalAlign=top;align=left;spacingLeft=30;fontColor=#CD2264;dashed=0;" parent="qOTPJeOaGqRv_bvspCkk-1" vertex="1"><mxGeometry x="450" y="5.93" width="360" height="944.07" as="geometry"/></mxCell><mxCell id="fw10FvaZPuGNBHpMOnDo-18" value="" style="sketch=0;points=[[0,0,0],[0.25,0,0],[0.5,0,0],[0.75,0,0],[1,0,0],[0,1,0],[0.25,1,0],[0.5,1,0],[0.75,1,0],[1,1,0],[0,0.25,0],[0,0.5,0],[0,0.75,0],[1,0.25,0],[1,0.5,0],[1,0.75,0]];points=[[0,0,0],[0.25,0,0],[0.5,0,0],[0.75,0,0],[1,0,0],[0,1,0],[0.25,1,0],[0.5,1,0],[0.75,1,0],[1,1,0],[0,0.25,0],[0,0.5,0],[0,0.75,0],[1,0.25,0],[1,0.5,0],[1,0.75,0]];outlineConnect=0;fontColor=#232F3E;gradientColor=#F34482;gradientDirection=north;fillColor=#BC1356;strokeColor=#ffffff;dashed=0;verticalLabelPosition=bottom;verticalAlign=top;align=center;html=1;fontSize=12;fontStyle=0;aspect=fixed;shape=mxgraph.aws4.resourceIcon;resIcon=mxgraph.aws4.app_config;" parent="fw10FvaZPuGNBHpMOnDo-17" vertex="1"><mxGeometry x="40" y="64.07" width="35.93" height="35.93" as="geometry"/></mxCell><mxCell id="fw10FvaZPuGNBHpMOnDo-21" value="" style="sketch=0;points=[[0,0,0],[0.25,0,0],[0.5,0,0],[0.75,0,0],[1,0,0],[0,1,0],[0.25,1,0],[0.5,1,0],[0.75,1,0],[1,1,0],[0,0.25,0],[0,0.5,0],[0,0.75,0],[1,0.25,0],[1,0.5,0],[1,0.75,0]];points=[[0,0,0],[0.25,0,0],[0.5,0,0],[0.75,0,0],[1,0,0],[0,1,0],[0.25,1,0],[0.5,1,0],[0.75,1,0],[1,1,0],[0,0.25,0],[0,0.5,0],[0,0.75,0],[1,0.25,0],[1,0.5,0],[1,0.75,0]];outlineConnect=0;fontColor=#232F3E;gradientColor=#F34482;gradientDirection=north;fillColor=#BC1356;strokeColor=#ffffff;dashed=0;verticalLabelPosition=bottom;verticalAlign=top;align=center;html=1;fontSize=12;fontStyle=0;aspect=fixed;shape=mxgraph.aws4.resourceIcon;resIcon=mxgraph.aws4.systems_manager;" parent="qOTPJeOaGqRv_bvspCkk-1" vertex="1"><mxGeometry x="115" y="981" width="28" height="28" as="geometry"/></mxCell><mxCell id="fw10FvaZPuGNBHpMOnDo-23" value="" style="sketch=0;points=[[0,0,0],[0.25,0,0],[0.5,0,0],[0.75,0,0],[1,0,0],[0,1,0],[0.25,1,0],[0.5,1,0],[0.75,1,0],[1,1,0],[0,0.25,0],[0,0.5,0],[0,0.75,0],[1,0.25,0],[1,0.5,0],[1,0.75,0]];outlineConnect=0;fontColor=#232F3E;gradientColor=#4D72F3;gradientDirection=north;fillColor=#3334B9;strokeColor=#ffffff;dashed=0;verticalLabelPosition=bottom;verticalAlign=top;align=center;html=1;fontSize=12;fontStyle=0;aspect=fixed;shape=mxgraph.aws4.resourceIcon;resIcon=mxgraph.aws4.codepipeline;" parent="qOTPJeOaGqRv_bvspCkk-1" vertex="1"><mxGeometry x="95" y="80" width="40" height="40" as="geometry"/></mxCell><mxCell id="hZJxNJMxsDFsEGx5a_zk-0" value="" style="sketch=0;points=[[0,0,0],[0.25,0,0],[0.5,0,0],[0.75,0,0],[1,0,0],[0,1,0],[0.25,1,0],[0.5,1,0],[0.75,1,0],[1,1,0],[0,0.25,0],[0,0.5,0],[0,0.75,0],[1,0.25,0],[1,0.5,0],[1,0.75,0]];points=[[0,0,0],[0.25,0,0],[0.5,0,0],[0.75,0,0],[1,0,0],[0,1,0],[0.25,1,0],[0.5,1,0],[0.75,1,0],[1,1,0],[0,0.25,0],[0,0.5,0],[0,0.75,0],[1,0.25,0],[1,0.5,0],[1,0.75,0]];outlineConnect=0;fontColor=#232F3E;gradientColor=#F34482;gradientDirection=north;fillColor=#BC1356;strokeColor=#ffffff;dashed=0;verticalLabelPosition=bottom;verticalAlign=top;align=center;html=1;fontSize=12;fontStyle=0;aspect=fixed;shape=mxgraph.aws4.resourceIcon;resIcon=mxgraph.aws4.systems_manager;" parent="qOTPJeOaGqRv_bvspCkk-1" vertex="1"><mxGeometry x="115" y="1045.5" width="28" height="28" as="geometry"/></mxCell><mxCell id="hZJxNJMxsDFsEGx5a_zk-1" value="" style="sketch=0;points=[[0,0,0],[0.25,0,0],[0.5,0,0],[0.75,0,0],[1,0,0],[0,1,0],[0.25,1,0],[0.5,1,0],[0.75,1,0],[1,1,0],[0,0.25,0],[0,0.5,0],[0,0.75,0],[1,0.25,0],[1,0.5,0],[1,0.75,0]];points=[[0,0,0],[0.25,0,0],[0.5,0,0],[0.75,0,0],[1,0,0],[0,1,0],[0.25,1,0],[0.5,1,0],[0.75,1,0],[1,1,0],[0,0.25,0],[0,0.5,0],[0,0.75,0],[1,0.25,0],[1,0.5,0],[1,0.75,0]];outlineConnect=0;fontColor=#232F3E;gradientColor=#F34482;gradientDirection=north;fillColor=#BC1356;strokeColor=#ffffff;dashed=0;verticalLabelPosition=bottom;verticalAlign=top;align=center;html=1;fontSize=12;fontStyle=0;aspect=fixed;shape=mxgraph.aws4.resourceIcon;resIcon=mxgraph.aws4.systems_manager;" parent="qOTPJeOaGqRv_bvspCkk-1" vertex="1"><mxGeometry x="115" y="1111" width="28" height="28" as="geometry"/></mxCell></root></mxGraphModel></diagram></mxfile>